NotoSansDisplay-CondensedItalic.ufo
<glyph name="plusminus" format="2">
  <advance width="419"/>
  <unicode hex="00B1"/>
  <outline>
    <contour>
      <point x="69" y="0" type="line"/>
      <point x="429" y="0" type="line"/>
      <point x="429" y="68" type="line"/>
      <point x="69" y="68" type="line"/>
    </contour>
    <component base="plus" xOffset="20" yOffset="18"/>
  </outline>
</glyph>
<glyph name="uni018E" format="2">
  <advance width="360"/>
  <unicode hex="018E"/>
  <anchor x="105" y="0" name="bottom"/>
  <anchor x="246" y="714" name="top"/>
  <outline>
    <contour>
      <point x="-24" y="0" type="line"/>
      <point x="232" y="0" type="line"/>
      <point x="383" y="714" type="line"/>
      <point x="128" y="714" type="line"/>
      <point x="113" y="642" type="line"/>
      <point x="288" y="642" type="line"/>
      <point x="238" y="409" type="line"/>
      <point x="75" y="409" type="line"/>
      <point x="60" y="337" type="line"/>
      <point x="223" y="337" type="line"/>
      <point x="167" y="72" type="line"/>
      <point x="-8" y="72" type="line"/>
    </contour>
  </outline>
</glyph>
<glyph name="florin" format="2">
  <advance width="347"/>
  <unicode hex="0192"/>
  <anchor x="89" y="0" name="bottom"/>
  <anchor x="390" y="765" name="top"/>
  <anchor x="464" y="765" name="topright"/>
  <outline>
    <contour>
      <point x="86" y="-16" type="curve" smooth="yes"/>
      <point x="162" y="-16"/>
      <point x="210" y="34"/>
      <point x="229" y="125" type="curve" smooth="yes"/>
      <point x="303" y="470" type="line"/>
      <point x="376" y="470" type="line"/>
      <point x="390" y="536" type="line"/>
      <point x="318" y="536" type="line"/>
      <point x="329" y="591" type="line" smooth="yes"/>
      <point x="343" y="660"/>
      <point x="359" y="697"/>
      <point x="396" y="697" type="curve" smooth="yes"/>
      <point x="408" y="697"/>
      <point x="422" y="694"/>
      <point x="435" y="687" type="curve"/>
      <point x="464" y="749" type="line"/>
      <point x="443" y="760"/>
      <point x="417" y="765"/>
      <point x="392" y="765" type="curve" smooth="yes"/>
      <point x="304" y="765"/>
      <point x="275" y="702"/>
      <point x="252" y="593" type="curve" smooth="yes"/>
      <point x="240" y="537" type="line"/>
      <point x="178" y="513" type="line"/>
      <point x="170" y="470" type="line"/>
      <point x="226" y="470" type="line"/>
      <point x="154" y="133" type="line" smooth="yes"/>
      <point x="145" y="93"/>
      <point x="126" y="52"/>
      <point x="85" y="52" type="curve" smooth="yes"/>
      <point x="55" y="52"/>
      <point x="41" y="74"/>
      <point x="41" y="105" type="curve" smooth="yes"/>
      <point x="41" y="119"/>
      <point x="43" y="131"/>
      <point x="46" y="141" type="curve"/>
      <point x="-21" y="154" type="line"/>
      <point x="-26" y="140"/>
      <point x="-29" y="123"/>
      <point x="-29" y="104" type="curve" smooth="yes"/>
      <point x="-29" y="31"/>
      <point x="8" y="-16"/>
    </contour>
  </outline>
</glyph>
<glyph name="kturned" format="2">
  <advance width="353"/>
  <unicode hex="029E"/>
  <anchor x="74" y="-224" name="bottom"/>
  <anchor x="234" y="536" name="top"/>
  <outline>
    <contour>
      <point x="118" y="-224" type="line"/>
      <point x="195" y="-224" type="line"/>
      <point x="357" y="536" type="line"/>
      <point x="280" y="536" type="line"/>
      <point x="241" y="347" type="line"/>
      <point x="182" y="281" type="line"/>
      <point x="141" y="536" type="line"/>
      <point x="59" y="536" type="line"/>
      <point x="114" y="217" type="line"/>
      <point x="-45" y="0" type="line"/>
      <point x="39" y="0" type="line"/>
      <point x="221" y="250" type="line"/>
      <point x="223" y="250" type="line"/>
      <point x="212" y="206"/>
      <point x="203" y="170"/>
      <point x="197" y="143" type="curve" smooth="yes"/>
    </contour>
  </outline>
</glyph>
<glyph name="arrowdoublerightbelowcomb" format="2">
  <unicode hex="0362"/>
  <anchor x="212" y="4" name="_bottom"/>
  <anchor x="166" y="-209" name="bottom"/>
  <outline>
    <contour>
      <point x="365" y="-209" type="line"/>
      <point x="451" y="-128" type="line"/>
      <point x="365" y="-46" type="line"/>
      <point x="365" y="-103" type="line"/>
      <point x="-84" y="-103" type="line"/>
      <point x="-84" y="-151" type="line"/>
      <point x="365" y="-151" type="line"/>
    </contour>
  </outline>
</glyph>
<glyph name="uni0463" format="2">
  <advance width="378"/>
  <unicode hex="0463"/>
  <anchor x="136" y="0" name="bottom"/>
  <anchor x="272" y="644" name="top"/>
  <outline>
    <contour>
      <point x="157" y="-10" type="curve" smooth="yes"/>
      <point x="266" y="-10"/>
      <point x="331" y="76"/>
      <point x="331" y="177" type="curve" smooth="yes"/>
      <point x="331" y="263"/>
      <point x="287" y="309"/>
      <point x="203" y="309" type="curve" smooth="yes"/>
      <point x="182" y="309"/>
      <point x="164" y="307"/>
      <point x="151" y="305" type="curve"/>
      <point x="188" y="477" type="line"/>
      <point x="269" y="477" type="line"/>
      <point x="282" y="536" type="line"/>
      <point x="200" y="536" type="line"/>
      <point x="224" y="644" type="line"/>
      <point x="147" y="644" type="line"/>
      <point x="123" y="536" type="line"/>
      <point x="55" y="536" type="line"/>
      <point x="42" y="477" type="line"/>
      <point x="111" y="477" type="line"/>
      <point x="47" y="179" type="line" smooth="yes"/>
      <point x="42" y="156"/>
      <point x="38" y="130"/>
      <point x="38" y="106" type="curve" smooth="yes"/>
      <point x="38" y="32"/>
      <point x="75" y="-10"/>
    </contour>
    <contour>
      <point x="165" y="52" type="curve" smooth="yes"/>
      <point x="131" y="52"/>
      <point x="114" y="74"/>
      <point x="114" y="113" type="curve" smooth="yes"/>
      <point x="114" y="137"/>
      <point x="120" y="173"/>
      <point x="138" y="242" type="curve"/>
      <point x="156" y="245"/>
      <point x="173" y="247"/>
      <point x="188" y="247" type="curve" smooth="yes"/>
      <point x="231" y="247"/>
      <point x="252" y="222"/>
      <point x="252" y="171" type="curve" smooth="yes"/>
      <point x="252" y="120"/>
      <point x="226" y="52"/>
    </contour>
  </outline>
</glyph>
<glyph name="uni0488" format="2">
  <advance width="908"/>
  <unicode hex="0488"/>
  <outline>
    <contour>
      <point x="590" y="460" type="curve"/>
      <point x="630" y="460" type="line"/>
      <point x="634" y="494"/>
      <point x="654" y="508"/>
      <point x="692" y="508" type="curve" smooth="yes"/>
      <point x="732" y="508"/>
      <point x="751" y="493"/>
      <point x="754" y="460" type="curve"/>
      <point x="793" y="460" type="line"/>
      <point x="790" y="524"/>
      <point x="753" y="557"/>
      <point x="694" y="557" type="curve" smooth="yes"/>
      <point x="632" y="557"/>
      <point x="594" y="520"/>
    </contour>
    <contour>
      <point x="83" y="-20" type="curve"/>
      <point x="122" y="-20" type="line"/>
      <point x="126" y="14"/>
      <point x="147" y="28"/>
      <point x="184" y="28" type="curve" smooth="yes"/>
      <point x="225" y="28"/>
      <point x="243" y="12"/>
      <point x="247" y="-20" type="curve"/>
      <point x="286" y="-20" type="line"/>
      <point x="283" y="43"/>
      <point x="248" y="77"/>
      <point x="186" y="77" type="curve" smooth="yes"/>
      <point x="125" y="77"/>
      <point x="86" y="40"/>
    </contour>
    <contour>
      <point x="331" y="-156" type="curve"/>
      <point x="371" y="-156" type="line"/>
      <point x="375" y="-123"/>
      <point x="395" y="-108"/>
      <point x="433" y="-108" type="curve" smooth="yes"/>
      <point x="473" y="-108"/>
      <point x="491" y="-124"/>
      <point x="495" y="-156" type="curve"/>
      <point x="535" y="-156" type="line"/>
      <point x="531" y="-92"/>
      <point x="493" y="-59"/>
      <point x="435" y="-59" type="curve" smooth="yes"/>
      <point x="373" y="-59"/>
      <point x="334" y="-97"/>
    </contour>
    <contour>
      <point x="3" y="222" type="curve"/>
      <point x="43" y="222" type="line"/>
      <point x="47" y="257"/>
      <point x="67" y="270"/>
      <point x="104" y="270" type="curve" smooth="yes"/>
      <point x="145" y="270"/>
      <point x="163" y="255"/>
      <point x="167" y="222" type="curve"/>
      <point x="205" y="222" type="line"/>
      <point x="204" y="285"/>
      <point x="168" y="319"/>
      <point x="107" y="319" type="curve" smooth="yes"/>
      <point x="46" y="319"/>
      <point x="5" y="281"/>
    </contour>
    <contour>
      <point x="85" y="460" type="curve"/>
      <point x="124" y="460" type="line"/>
      <point x="128" y="494"/>
      <point x="148" y="508"/>
      <point x="186" y="508" type="curve" smooth="yes"/>
      <point x="227" y="508"/>
      <point x="245" y="493"/>
      <point x="249" y="460" type="curve"/>
      <point x="288" y="460" type="line"/>
      <point x="285" y="523"/>
      <point x="250" y="557"/>
      <point x="189" y="557" type="curve" smooth="yes"/>
      <point x="128" y="557"/>
      <point x="88" y="520"/>
    </contour>
    <contour>
      <point x="588" y="-20" type="curve"/>
      <point x="628" y="-20" type="line"/>
      <point x="632" y="14"/>
      <point x="653" y="28"/>
      <point x="690" y="28" type="curve" smooth="yes"/>
      <point x="730" y="28"/>
      <point x="748" y="12"/>
      <point x="752" y="-20" type="curve"/>
      <point x="791" y="-20" type="line"/>
      <point x="788" y="44"/>
      <point x="751" y="77"/>
      <point x="692" y="77" type="curve" smooth="yes"/>
      <point x="630" y="77"/>
      <point x="592" y="40"/>
    </contour>
    <contour>
      <point x="671" y="222" type="curve"/>
      <point x="711" y="222" type="line"/>
      <point x="715" y="257"/>
      <point x="735" y="270"/>
      <point x="773" y="270" type="curve" smooth="yes"/>
      <point x="813" y="270"/>
      <point x="831" y="255"/>
      <point x="835" y="222" type="curve"/>
      <point x="874" y="222" type="line"/>
      <point x="872" y="285"/>
      <point x="837" y="319"/>
      <point x="775" y="319" type="curve" smooth="yes"/>
      <point x="714" y="319"/>
      <point x="674" y="281"/>
    </contour>
    <contour>
      <point x="334" y="599" type="curve"/>
      <point x="374" y="599" type="line"/>
      <point x="378" y="633"/>
      <point x="399" y="647"/>
      <point x="436" y="647" type="curve" smooth="yes"/>
      <point x="476" y="647"/>
      <point x="494" y="632"/>
      <point x="498" y="599" type="curve"/>
      <point x="538" y="599" type="line"/>
      <point x="534" y="663"/>
      <point x="499" y="696"/>
      <point x="438" y="696" type="curve" smooth="yes"/>
      <point x="377" y="696"/>
      <point x="338" y="660"/>
    </contour>
  </outline>
</glyph>
<glyph name="uni0489" format="2">
  <advance width="916"/>
  <unicode hex="0489"/>
  <outline>
    <contour>
      <point x="658" y="460" type="line"/>
      <point x="683" y="480"/>
      <point x="765" y="540"/>
      <point x="789" y="557" type="curve"/>
      <point x="766" y="581" type="line"/>
      <point x="718" y="568"/>
      <point x="654" y="540"/>
      <point x="616" y="515" type="curve"/>
      <point x="611" y="508" type="line"/>
    </contour>
    <contour>
      <point x="129" y="-42" type="line"/>
      <point x="176" y="-29"/>
      <point x="244" y="1"/>
      <point x="278" y="24" type="curve"/>
      <point x="283" y="32" type="line"/>
      <point x="236" y="79" type="line"/>
      <point x="191" y="41"/>
      <point x="149" y="11"/>
      <point x="102" y="-16" type="curve"/>
    </contour>
    <contour>
      <point x="167" y="218" type="curve"/>
      <point x="176" y="220" type="line"/>
      <point x="176" y="287" type="line"/>
      <point x="126" y="292"/>
      <point x="74" y="300"/>
      <point x="16" y="316" type="curve"/>
      <point x="16" y="279" type="line"/>
      <point x="54" y="257"/>
      <point x="125" y="227"/>
    </contour>
    <contour>
      <point x="401" y="-180" type="curve"/>
      <point x="437" y="-180" type="line"/>
      <point x="457" y="-142"/>
      <point x="488" y="-65"/>
      <point x="496" y="-26" type="curve"/>
      <point x="495" y="-17" type="line"/>
      <point x="429" y="-17" type="line"/>
      <point x="426" y="-46"/>
      <point x="417" y="-95"/>
    </contour>
    <contour>
      <point x="723" y="-79" type="curve"/>
      <point x="750" y="-54" type="line"/>
      <point x="739" y="-13"/>
      <point x="707" y="63"/>
      <point x="685" y="96" type="curve"/>
      <point x="678" y="102" type="line"/>
      <point x="631" y="55" type="line"/>
      <point x="661" y="18"/>
      <point x="687" y="-21"/>
    </contour>
    <contour>
      <point x="215" y="437" type="line"/>
      <point x="262" y="485" type="line"/>
      <point x="233" y="520"/>
      <point x="203" y="562"/>
      <point x="170" y="620" type="curve"/>
      <point x="143" y="594" type="line"/>
      <point x="154" y="554"/>
      <point x="185" y="477"/>
      <point x="207" y="443" type="curve"/>
    </contour>
    <contour>
      <point x="878" y="226" type="curve"/>
      <point x="878" y="262" type="line"/>
      <point x="844" y="282"/>
      <point x="767" y="312"/>
      <point x="727" y="321" type="curve"/>
      <point x="718" y="319" type="line"/>
      <point x="718" y="252" type="line"/>
      <point x="746" y="250"/>
      <point x="807" y="241"/>
    </contour>
    <contour>
      <point x="399" y="557" type="line"/>
      <point x="465" y="557" type="line"/>
      <point x="470" y="611"/>
      <point x="479" y="660"/>
      <point x="494" y="720" type="curve"/>
      <point x="458" y="720" type="line"/>
      <point x="435" y="682"/>
      <point x="407" y="608"/>
      <point x="398" y="566" type="curve"/>
    </contour>
  </outline>
</glyph>
<glyph name="uni1ABA" format="2">
  <unicode hex="1ABA"/>
  <anchor x="-30" y="90" name="_bottom"/>
  <anchor x="-91" y="-240" name="bottom"/>
  <outline>
    <contour>
      <point x="-162" y="-188" type="line"/>
      <point x="-98" y="-188" type="line"/>
      <point x="40" y="40" type="line"/>
      <point x="-25" y="40" type="line"/>
    </contour>
    <contour>
      <point x="-135" y="-240" type="curve" smooth="yes"/>
      <point x="-100" y="-240"/>
      <point x="-80" y="-206"/>
      <point x="-80" y="-166" type="curve" smooth="yes"/>
      <point x="-80" y="-140"/>
      <point x="-92" y="-127"/>
      <point x="-117" y="-127" type="curve" smooth="yes"/>
      <point x="-153" y="-127"/>
      <point x="-174" y="-161"/>
      <point x="-174" y="-199" type="curve" smooth="yes"/>
      <point x="-174" y="-225"/>
      <point x="-161" y="-240"/>
    </contour>
  </outline>
</glyph>
<glyph name="uni1D24" format="2">
  <advance width="318"/>
  <unicode hex="1D24"/>
  <anchor x="105" y="0" name="bottom"/>
  <anchor x="220" y="545" name="top"/>
  <outline>
    <contour>
      <point x="131" y="-9" type="curve" smooth="yes"/>
      <point x="172" y="-9"/>
      <point x="210" y="0"/>
      <point x="244" y="19" type="curve"/>
      <point x="244" y="89" type="line"/>
      <point x="214" y="71"/>
      <point x="180" y="58"/>
      <point x="146" y="58" type="curve" smooth="yes"/>
      <point x="106" y="58"/>
      <point x="82" y="79"/>
      <point x="82" y="119" type="curve" smooth="yes"/>
      <point x="82" y="180"/>
      <point x="109" y="206"/>
      <point x="190" y="255" type="curve" smooth="yes"/>
      <point x="261" y="298"/>
      <point x="313" y="341"/>
      <point x="313" y="431" type="curve" smooth="yes"/>
      <point x="313" y="502"/>
      <point x="271" y="545"/>
      <point x="194" y="545" type="curve" smooth="yes"/>
      <point x="153" y="545"/>
      <point x="114" y="533"/>
      <point x="79" y="512" type="curve"/>
      <point x="98" y="452" type="line"/>
      <point x="123" y="466"/>
      <point x="150" y="478"/>
      <point x="182" y="478" type="curve" smooth="yes"/>
      <point x="214" y="478"/>
      <point x="234" y="461"/>
      <point x="234" y="428" type="curve" smooth="yes"/>
      <point x="234" y="368"/>
      <point x="193" y="341"/>
      <point x="129" y="303" type="curve" smooth="yes"/>
      <point x="52" y="257"/>
      <point x="2" y="208"/>
      <point x="2" y="114" type="curve" smooth="yes"/>
      <point x="2" y="30"/>
      <point x="55" y="-9"/>
    </contour>
  </outline>
</glyph>
<glyph name="uni1D2F" format="2">
  <advance width="276"/>
  <unicode hex="1D2F"/>
  <anchor x="157.65" y="287.0" name="bottom"/>
  <anchor x="253.85" y="715.4" name="top"/>
  <anchor x="378.0" y="715.4" name="topright"/>
  <outline>
    <contour>
      <point x="54" y="491" type="line"/>
      <point x="332" y="491" type="line"/>
      <point x="340" y="531" type="line"/>
      <point x="62" y="531" type="line"/>
    </contour>
    <component base="B" xScale="0.65" yScale="0.6" xOffset="53" yOffset="287"/>
  </outline>
</glyph>
<glyph name="uni1D7A" format="2">
  <advance width="640"/>
  <unicode hex="1D7A"/>
  <anchor x="81" y="0" name="bottom_1"/>
  <anchor x="382" y="0" name="bottom_2"/>
  <anchor x="97" y="268" name="center_1"/>
  <anchor x="437" y="265" name="center_2"/>
  <anchor x="184" y="658" name="top_1"/>
  <anchor x="435" y="760" name="top_2"/>
  <anchor x="268" y="830" name="topright_1"/>
  <anchor x="671" y="760" name="topright_2"/>
  <outline>
    <contour>
      <point x="-87" y="-78" type="line"/>
      <point x="-12" y="-78" type="line"/>
      <point x="662" y="760" type="line"/>
      <point x="587" y="760" type="line"/>
    </contour>
    <component base="t"/>
    <component base="h" xOffset="236"/>
  </outline>
</glyph>
<glyph name="uni1D7D" format="2">
  <advance width="411"/>
  <unicode hex="1D7D"/>
  <anchor x="-12" y="-233" name="bottom"/>
  <anchor x="263" y="536" name="top"/>
  <anchor x="448" y="536" name="topright"/>
  <outline>
    <contour>
      <point x="-4" y="245" type="line"/>
      <point x="414" y="245" type="line"/>
      <point x="428" y="308" type="line"/>
      <point x="10" y="308" type="line"/>
    </contour>
    <component base="p"/>
  </outline>
</glyph>
<glyph name="uni1D7F" format="2">
  <advance width="414"/>
  <unicode hex="1D7F"/>
  <anchor x="149" y="0" name="bottom"/>
  <anchor x="261" y="529" name="top"/>
  <outline>
    <contour>
      <point x="-6" y="244" type="line"/>
      <point x="409" y="244" type="line"/>
      <point x="423" y="308" type="line"/>
      <point x="8" y="308" type="line"/>
    </contour>
    <component base="uni028A"/>
  </outline>
</glyph>
<glyph name="ll-middleWelsh" format="2">
  <advance width="382"/>
  <unicode hex="1EFB"/>
  <anchor x="230" y="0" name="bottom"/>
  <anchor x="391" y="760" name="top"/>
  <anchor x="285" y="268" name="center_1"/>
  <anchor x="94" y="268" name="center_2"/>
  <anchor x="464" y="760" name="topright_1"/>
  <anchor x="273" y="760" name="topright_2"/>
  <outline>
    <contour>
      <point x="73" y="596" type="line"/>
      <point x="449" y="596" type="line"/>
      <point x="459" y="644" type="line"/>
      <point x="83" y="644" type="line"/>
    </contour>
    <component base="l" xOffset="191"/>
    <component base="l"/>
  </outline>
</glyph>
<glyph name="uni1FEF" format="2">
  <advance width="410"/>
  <unicode hex="1FEF"/>
  <anchor x="226" y="529" name="_top"/>
  <anchor x="273" y="770" name="top"/>
  <outline>
    <contour>
      <point x="257" y="608" type="curve"/>
      <point x="302" y="608" type="line"/>
      <point x="305" y="619" type="line"/>
      <point x="298" y="655"/>
      <point x="294" y="729"/>
      <point x="295" y="770" type="curve"/>
      <point x="219" y="770" type="line"/>
      <point x="217" y="760" type="line"/>
      <point x="223" y="724"/>
      <point x="244" y="642"/>
    </contour>
  </outline>
</glyph>
<glyph name="uni1FFD" format="2">
  <advance width="410"/>
  <unicode hex="1FFD"/>
  <anchor x="275" y="529" name="_top"/>
  <anchor x="321" y="768" name="top"/>
  <outline>
    <contour>
      <point x="237" y="607" type="line"/>
      <point x="281" y="607" type="line"/>
      <point x="308" y="641"/>
      <point x="359" y="721"/>
      <point x="378" y="758" type="curve"/>
      <point x="380" y="768" type="line"/>
      <point x="304" y="768" type="line"/>
      <point x="292" y="728"/>
      <point x="260" y="656"/>
      <point x="239" y="618" type="curve"/>
    </contour>
  </outline>
</glyph>
<glyph name="tironiansignet" format="2">
  <advance width="588"/>
  <unicode hex="204A"/>
  <outline>
    <contour>
      <point x="496" y="0" type="line"/>
      <point x="496" y="537" type="line"/>
      <point x="34" y="537" type="line"/>
      <point x="34" y="472" type="line"/>
      <point x="431" y="472" type="line"/>
      <point x="431" y="0" type="line"/>
    </contour>
  </outline>
</glyph>
<glyph name="plussuperior" format="2">
  <advance width="339"/>
  <unicode hex="207A"/>
  <outline>
    <contour>
      <point x="183" y="317" type="line"/>
      <point x="236" y="317" type="line"/>
      <point x="236" y="428" type="line"/>
      <point x="344" y="428" type="line"/>
      <point x="344" y="481" type="line"/>
      <point x="236" y="481" type="line"/>
      <point x="236" y="592" type="line"/>
      <point x="183" y="592" type="line"/>
      <point x="183" y="481" type="line"/>
      <point x="75" y="481" type="line"/>
      <point x="75" y="428" type="line"/>
      <point x="183" y="428" type="line"/>
    </contour>
  </outline>
</glyph>
<glyph name="equalsuperior" format="2">
  <advance width="339"/>
  <unicode hex="207C"/>
  <outline>
    <contour>
      <point x="75" y="485" type="line"/>
      <point x="344" y="485" type="line"/>
      <point x="344" y="537" type="line"/>
      <point x="75" y="537" type="line"/>
    </contour>
    <contour>
      <point x="75" y="372" type="line"/>
      <point x="344" y="372" type="line"/>
      <point x="344" y="424" type="line"/>
      <point x="75" y="424" type="line"/>
    </contour>
  </outline>
</glyph>
<glyph name="parenleftsuperior" format="2">
  <advance width="181"/>
  <unicode hex="207D"/>
  <outline>
    <contour>
      <point x="104" y="230" type="curve"/>
      <point x="149" y="230" type="line"/>
      <point x="132" y="275"/>
      <point x="124" y="341"/>
      <point x="124" y="393" type="curve" smooth="yes"/>
      <point x="124" y="531"/>
      <point x="178" y="660"/>
      <point x="264" y="767" type="curve"/>
      <point x="216" y="767" type="line"/>
      <point x="124" y="664"/>
      <point x="71" y="532"/>
      <point x="71" y="396" type="curve" smooth="yes"/>
      <point x="71" y="340"/>
      <point x="82" y="274"/>
    </contour>
  </outline>
</glyph>
<glyph name="parenrightsuperior" format="2">
  <advance width="180"/>
  <unicode hex="207E"/>
  <outline>
    <contour>
      <point x="17" y="230" type="curve"/>
      <point x="66" y="230" type="line"/>
      <point x="157" y="333"/>
      <point x="210" y="464"/>
      <point x="210" y="602" type="curve" smooth="yes"/>
      <point x="210" y="659"/>
      <point x="199" y="723"/>
      <point x="177" y="767" type="curve"/>
      <point x="131" y="767" type="line"/>
      <point x="147" y="723"/>
      <point x="157" y="655"/>
      <point x="157" y="603" type="curve" smooth="yes"/>
      <point x="157" y="466"/>
      <point x="103" y="337"/>
    </contour>
  </outline>
</glyph>
<glyph name="uni20A9" format="2">
  <advance width="641"/>
  <unicode hex="20A9"/>
  <outline>
    <contour>
      <point x="71" y="0" type="line"/>
      <point x="165" y="0" type="line"/>
      <point x="262" y="263" type="line"/>
      <point x="369" y="263" type="line"/>
      <point x="358" y="0" type="line"/>
      <point x="451" y="0" type="line"/>
      <point x="552" y="263" type="line"/>
      <point x="633" y="263" type="line"/>
      <point x="644" y="313" type="line"/>
      <point x="571" y="313" type="line"/>
      <point x="606" y="404" type="line"/>
      <point x="662" y="404" type="line"/>
      <point x="673" y="455" type="line"/>
      <point x="625" y="455" type="line"/>
      <point x="724" y="714" type="line"/>
      <point x="643" y="714" type="line"/>
      <point x="549" y="455" type="line"/>
      <point x="434" y="455" type="line"/>
      <point x="444" y="714" type="line"/>
      <point x="372" y="714" type="line"/>
      <point x="274" y="455" type="line"/>
      <point x="157" y="455" type="line"/>
      <point x="166" y="714" type="line"/>
      <point x="90" y="714" type="line"/>
      <point x="83" y="455" type="line"/>
      <point x="35" y="455" type="line"/>
      <point x="24" y="404" type="line"/>
      <point x="82" y="404" type="line"/>
      <point x="79" y="313" type="line"/>
      <point x="6" y="313" type="line"/>
      <point x="-5" y="263" type="line"/>
      <point x="78" y="263" type="line"/>
    </contour>
    <contour>
      <point x="140" y="94" type="line"/>
      <point x="149" y="263" type="line"/>
      <point x="202" y="263" type="line"/>
    </contour>
    <contour>
      <point x="151" y="313" type="line"/>
      <point x="154" y="404" type="line"/>
      <point x="254" y="404" type="line"/>
      <point x="219" y="313" type="line"/>
    </contour>
    <contour>
      <point x="418" y="93" type="line"/>
      <point x="428" y="263" type="line"/>
      <point x="479" y="263" type="line"/>
    </contour>
    <contour>
      <point x="281" y="313" type="line"/>
      <point x="315" y="404" type="line"/>
      <point x="374" y="404" type="line"/>
      <point x="370" y="313" type="line"/>
    </contour>
    <contour>
      <point x="429" y="313" type="line"/>
      <point x="432" y="404" type="line"/>
      <point x="530" y="404" type="line"/>
      <point x="496" y="313" type="line"/>
    </contour>
    <contour>
      <point x="331" y="455" type="line"/>
      <point x="385" y="609" type="line"/>
      <point x="376" y="455" type="line"/>
    </contour>
  </outline>
</glyph>
<glyph name="uni2C66" format="2">
  <advance width="235"/>
  <unicode hex="2C66"/>
  <anchor x="37" y="-208" name="bottom"/>
  <anchor x="206" y="760" name="top"/>
  <anchor x="97" y="268" name="center"/>
  <anchor x="298" y="658" name="topright"/>
  <outline>
    <contour>
      <point x="-3" y="-208" type="line"/>
      <point x="41" y="-208" type="line"/>
      <point x="323" y="760" type="line"/>
      <point x="279" y="760" type="line" smooth="yes"/>
    </contour>
    <component base="t"/>
  </outline>
</glyph>
<glyph name="uni2DF5" format="2">
  <unicode hex="2DF5"/>
  <anchor x="57" y="536" name="_top"/>
  <anchor x="118" y="834" name="top"/>
  <anchor x="260" y="834" name="topright"/>
  <outline>
    <contour>
      <point x="26" y="616" type="curve" smooth="yes"/>
      <point x="42" y="616"/>
      <point x="58" y="621"/>
      <point x="70" y="627" type="curve"/>
      <point x="70" y="654" type="line"/>
      <point x="57" y="647"/>
      <point x="44" y="643"/>
      <point x="34" y="643" type="curve" smooth="yes"/>
      <point x="15" y="643"/>
      <point x="5" y="656"/>
      <point x="5" y="684" type="curve" smooth="yes"/>
      <point x="5" y="731"/>
      <point x="27" y="807"/>
      <point x="79" y="807" type="curve" smooth="yes"/>
      <point x="149" y="807" type="line"/>
      <point x="104" y="620" type="line"/>
      <point x="139" y="620" type="line"/>
      <point x="184" y="807" type="line"/>
      <point x="236" y="807" type="line"/>
      <point x="242" y="834" type="line"/>
      <point x="79" y="834" type="line" smooth="yes"/>
      <point x="0" y="834"/>
      <point x="-31" y="741"/>
      <point x="-31" y="680" type="curve" smooth="yes"/>
      <point x="-31" y="638"/>
      <point x="-11" y="616"/>
    </contour>
  </outline>
</glyph>
<glyph name="uniA650" format="2">
  <advance width="672"/>
  <unicode hex="A650"/>
  <anchor x="317" y="0" name="bottom"/>
  <anchor x="469" y="714" name="top"/>
  <outline>
    <contour>
      <point x="81" y="641" type="line"/>
      <point x="206" y="641" type="line"/>
      <point x="301" y="714" type="line"/>
      <point x="96" y="714" type="line"/>
    </contour>
    <component base="afii10045" xOffset="71"/>
  </outline>
</glyph>
<glyph name="uniA655" format="2">
  <advance width="579"/>
  <unicode hex="A655"/>
  <anchor x="143" y="0" name="bottom"/>
  <anchor x="200" y="268" name="center"/>
  <anchor x="257" y="536" name="top"/>
  <anchor x="437" y="536" name="topright"/>
  <outline>
    <contour>
      <point x="348" y="312" type="line"/>
      <point x="334" y="245" type="line"/>
      <point x="440" y="245" type="line"/>
      <point x="388" y="0" type="line"/>
      <point x="464" y="0" type="line"/>
      <point x="578" y="536" type="line"/>
      <point x="502" y="536" type="line"/>
      <point x="454" y="312" type="line"/>
    </contour>
    <component base="o"/>
  </outline>
</glyph>
<glyph name="uniA657" format="2">
  <advance width="515"/>
  <unicode hex="A657"/>
  <anchor x="242" y="0" name="bottom"/>
  <anchor x="297" y="536" name="top"/>
  <outline>
    <contour>
      <point x="126" y="0" type="line"/>
      <point x="207" y="0" type="line"/>
      <point x="302" y="240" type="line"/>
      <point x="381" y="240" type="line"/>
      <point x="378" y="0" type="line"/>
      <point x="455" y="0" type="line"/>
      <point x="449" y="536" type="line"/>
      <point x="356" y="536" type="line"/>
    </contour>
    <contour>
      <point x="-1" y="0" type="line"/>
      <point x="76" y="0" type="line"/>
      <point x="127" y="240" type="line"/>
      <point x="260" y="240" type="line"/>
      <point x="276" y="304" type="line"/>
      <point x="141" y="304" type="line"/>
      <point x="190" y="536" type="line"/>
      <point x="114" y="536" type="line"/>
    </contour>
    <contour>
      <point x="325" y="301" type="line"/>
      <point x="352" y="371" type="line" smooth="yes"/>
      <point x="363" y="400"/>
      <point x="374" y="428"/>
      <point x="384" y="461" type="curve"/>
      <point x="388" y="461" type="line"/>
      <point x="385" y="438"/>
      <point x="382" y="372"/>
      <point x="381" y="345" type="curve" smooth="yes"/>
      <point x="380" y="301" type="line"/>
    </contour>
  </outline>
</glyph>
<glyph name="uniA664" format="2">
  <advance width="567"/>
  <unicode hex="A664"/>
  <anchor x="169" y="0" name="bottom"/>
  <anchor x="351" y="714" name="top"/>
  <outline>
    <contour>
      <point x="450" y="641" type="line"/>
      <point x="630" y="641" type="line"/>
      <point x="645.997" y="714" type="line"/>
      <point x="392" y="714" type="line"/>
    </contour>
    <component base="afii10029"/>
  </outline>
</glyph>
<glyph name="uniA666" format="2">
  <advance width="750"/>
  <unicode hex="A666"/>
  <anchor x="264" y="0" name="bottom"/>
  <anchor x="395" y="714" name="top"/>
  <anchor x="712" y="714" name="topright"/>
  <outline>
    <contour>
      <point x="633" y="641" type="line"/>
      <point x="813" y="641" type="line"/>
      <point x="828.997" y="714" type="line"/>
      <point x="575" y="714" type="line"/>
    </contour>
    <component base="M"/>
  </outline>
</glyph>
<glyph name="uniA671" format="2">
  <unicode hex="A671"/>
  <outline>
    <contour>
      <point x="-365" y="616" type="line"/>
      <point x="-298" y="617" type="line"/>
      <point x="-274" y="731" type="line"/>
      <point x="475" y="731" type="line"/>
      <point x="450" y="616" type="line"/>
      <point x="518" y="617" type="line"/>
      <point x="557" y="801" type="line"/>
      <point x="-326" y="801" type="line"/>
    </contour>
    <contour>
      <point x="-544" y="-281" type="line"/>
      <point x="338" y="-281" type="line"/>
      <point x="378" y="-96" type="line"/>
      <point x="310" y="-97" type="line"/>
      <point x="287" y="-210" type="line"/>
      <point x="-462" y="-210" type="line"/>
      <point x="-438" y="-96" type="line"/>
      <point x="-505" y="-97" type="line"/>
    </contour>
  </outline>
</glyph>
<glyph name="uniA672" format="2">
  <unicode hex="A672"/>
  <outline>
    <contour>
      <point x="48" y="586" type="line"/>
      <point x="90" y="586" type="line"/>
      <point x="118" y="720" type="line"/>
      <point x="237" y="720" type="line"/>
      <point x="246" y="765" type="line"/>
      <point x="127" y="765" type="line"/>
      <point x="156" y="899" type="line"/>
      <point x="114" y="899" type="line"/>
      <point x="86" y="765" type="line"/>
      <point x="-32" y="765" type="line"/>
      <point x="-41" y="720" type="line"/>
      <point x="76" y="720" type="line"/>
    </contour>
    <contour>
      <point x="-318" y="-379" type="line"/>
      <point x="-276" y="-379" type="line"/>
      <point x="-210" y="-64" type="line"/>
      <point x="-252" y="-64" type="line"/>
    </contour>
    <contour>
      <point x="-587" y="63" type="line"/>
      <point x="-307" y="63" type="line"/>
      <point x="-298" y="108" type="line"/>
      <point x="-578" y="108" type="line"/>
    </contour>
    <contour>
      <point x="-157" y="-379" type="line"/>
      <point x="-114" y="-379" type="line"/>
      <point x="-47" y="-64" type="line"/>
      <point x="-90" y="-64" type="line"/>
    </contour>
    <contour>
      <point x="6" y="-379" type="line"/>
      <point x="49" y="-379" type="line"/>
      <point x="116" y="-64" type="line"/>
      <point x="73" y="-64" type="line"/>
    </contour>
    <contour>
      <point x="-548" y="248" type="line"/>
      <point x="-268" y="248" type="line"/>
      <point x="-259" y="293" type="line"/>
      <point x="-539" y="293" type="line"/>
    </contour>
    <contour>
      <point x="-509" y="433" type="line"/>
      <point x="-229" y="433" type="line"/>
      <point x="-220" y="478" type="line"/>
      <point x="-500" y="478" type="line"/>
    </contour>
    <contour>
      <point x="229" y="63" type="line"/>
      <point x="508" y="63" type="line"/>
      <point x="518" y="108" type="line"/>
      <point x="238" y="108" type="line"/>
    </contour>
    <contour>
      <point x="268" y="248" type="line"/>
      <point x="548" y="248" type="line"/>
      <point x="557" y="293" type="line"/>
      <point x="278" y="293" type="line"/>
    </contour>
    <contour>
      <point x="307" y="433" type="line"/>
      <point x="587" y="433" type="line"/>
      <point x="596" y="478" type="line"/>
      <point x="316" y="478" type="line"/>
    </contour>
  </outline>
</glyph>
<glyph name="uniA684" format="2">
  <advance width="770"/>
  <unicode hex="A684"/>
  <anchor x="107" y="0" name="bottom_1"/>
  <anchor x="515" y="0" name="bottom_2"/>
  <anchor x="248" y="714" name="top_1"/>
  <anchor x="667" y="714" name="top_2"/>
  <outline>
    <contour>
      <point x="211" y="335" type="line"/>
      <point x="464" y="335" type="line"/>
      <point x="480" y="407" type="line"/>
      <point x="227" y="407" type="line"/>
    </contour>
    <component base="afii10025"/>
    <component base="afii10028" xOffset="373"/>
  </outline>
</glyph>
<glyph name="uniA69E" format="2">
  <unicode hex="A69E"/>
  <outline>
    <contour>
      <point x="-57" y="124" type="line"/>
      <point x="0" y="124" type="line"/>
      <point x="30" y="272" type="line"/>
      <point x="137" y="278"/>
      <point x="191" y="380"/>
      <point x="191" y="488" type="curve" smooth="yes"/>
      <point x="191" y="564"/>
      <point x="159" y="605"/>
      <point x="103" y="614" type="curve"/>
      <point x="131" y="750" type="line"/>
      <point x="74" y="750" type="line"/>
      <point x="46" y="613" type="line"/>
      <point x="-54" y="609"/>
      <point x="-113" y="517"/>
      <point x="-113" y="401" type="curve" smooth="yes"/>
      <point x="-113" y="328"/>
      <point x="-83" y="281"/>
      <point x="-26" y="272" type="curve"/>
    </contour>
    <contour>
      <point x="-14" y="321" type="line"/>
      <point x="-37" y="325"/>
      <point x="-54" y="349"/>
      <point x="-54" y="403" type="curve" smooth="yes"/>
      <point x="-54" y="470"/>
      <point x="-25" y="561"/>
      <point x="34" y="565" type="curve"/>
    </contour>
    <contour>
      <point x="42" y="321" type="curve"/>
      <point x="91" y="565" type="line"/>
      <point x="115" y="561"/>
      <point x="132" y="534"/>
      <point x="132" y="484" type="curve" smooth="yes"/>
      <point x="132" y="422"/>
      <point x="103" y="324"/>
    </contour>
  </outline>
</glyph>
<glyph name="uniA73B" format="2">
  <advance width="571"/>
  <unicode hex="A73B"/>
  <anchor x="220" y="0" name="bottom"/>
  <anchor x="339" y="536" name="top"/>
  <outline>
    <contour>
      <point x="310" y="261" type="line"/>
      <point x="455" y="261" type="line"/>
      <point x="467" y="314" type="line"/>
      <point x="322" y="314" type="line"/>
    </contour>
    <component base="uniA739"/>
  </outline>
</glyph>
<glyph name="uniA744" format="2">
  <advance width="399"/>
  <unicode hex="A744"/>
  <anchor x="145" y="0" name="bottom"/>
  <anchor x="316" y="714" name="top"/>
  <anchor x="475" y="714" name="topright"/>
  <outline>
    <contour>
      <point x="180" y="112" type="line"/>
      <point x="369" y="158" type="line"/>
      <point x="357" y="213" type="line"/>
      <point x="167" y="167" type="line"/>
    </contour>
    <component base="uniA740"/>
  </outline>
</glyph>
<glyph name="uniA745" format="2">
  <advance width="358"/>
  <unicode hex="A745"/>
  <anchor x="125" y="0" name="bottom"/>
  <anchor x="286" y="760" name="top"/>
  <anchor x="454" y="760" name="topright"/>
  <outline>
    <contour>
      <point x="151" y="95" type="line"/>
      <point x="344" y="150" type="line"/>
      <point x="331" y="197" type="line"/>
      <point x="138" y="142" type="line"/>
    </contour>
    <component base="uniA741"/>
  </outline>
</glyph>
<glyph name="uniA748" format="2">
  <advance width="332"/>
  <unicode hex="A748"/>
  <anchor x="120" y="0" name="bottom"/>
  <anchor x="113" y="357" name="center"/>
  <anchor x="192" y="714" name="top"/>
  <anchor x="328" y="714" name="topright"/>
  <outline>
    <contour>
      <point x="66" y="566" type="line"/>
      <point x="297" y="566" type="line"/>
      <point x="309" y="623" type="line"/>
      <point x="77" y="623" type="line"/>
    </contour>
    <component base="L"/>
  </outline>
</glyph>
<glyph name="uniA749" format="2">
  <advance width="191"/>
  <unicode hex="A749"/>
  <anchor x="37" y="0" name="bottom"/>
  <anchor x="94" y="268" name="center"/>
  <anchor x="199" y="760" name="top"/>
  <anchor x="273" y="760" name="topright"/>
  <outline>
    <contour>
      <point x="73" y="609" type="line" smooth="yes"/>
      <point x="263" y="609" type="line" smooth="yes"/>
      <point x="276" y="669" type="line" smooth="yes"/>
      <point x="86" y="669" type="line" smooth="yes"/>
    </contour>
    <component base="l"/>
  </outline>
</glyph>
<glyph name="uniA74A" format="2">
  <advance width="487"/>
  <unicode hex="A74A"/>
  <anchor x="189" y="0" name="bottom"/>
  <anchor x="262" y="357" name="center"/>
  <anchor x="330" y="714" name="top"/>
  <anchor x="564" y="714" name="topright"/>
  <outline>
    <contour>
      <point x="4" y="330" type="line"/>
      <point x="493" y="330" type="line"/>
      <point x="508" y="399" type="line"/>
      <point x="19" y="399" type="line"/>
    </contour>
    <component base="O"/>
  </outline>
</glyph>
<glyph name="uniA751" format="2">
  <advance width="411"/>
  <unicode hex="A751"/>
  <anchor x="103" y="-233" name="bottom"/>
  <anchor x="265" y="529" name="top"/>
  <anchor x="448" y="536" name="topright"/>
  <outline>
    <contour>
      <point x="-86" y="-143" type="line"/>
      <point x="155" y="-143" type="line"/>
      <point x="168" y="-82" type="line"/>
      <point x="-73" y="-82" type="line"/>
    </contour>
    <component base="p"/>
  </outline>
</glyph>
<glyph name="uniA752" format="2">
  <advance width="490"/>
  <unicode hex="A752"/>
  <anchor x="236" y="0" name="bottom"/>
  <anchor x="378" y="714" name="top"/>
  <anchor x="566" y="714" name="topright"/>
  <outline>
    <contour>
      <point x="-23" y="161" type="curve"/>
      <point x="46" y="162" type="line"/>
      <point x="46" y="167"/>
      <point x="46" y="172"/>
      <point x="46" y="180" type="curve" smooth="yes"/>
      <point x="46" y="242"/>
      <point x="78" y="280"/>
      <point x="137" y="280" type="curve" smooth="yes"/>
      <point x="180" y="280" type="line"/>
      <point x="195" y="351" type="line"/>
      <point x="149" y="351" type="line" smooth="yes"/>
      <point x="39" y="351"/>
      <point x="-24" y="286"/>
      <point x="-24" y="181" type="curve" smooth="yes"/>
      <point x="-24" y="175"/>
      <point x="-24" y="167"/>
    </contour>
    <component base="P" xOffset="92"/>
  </outline>
</glyph>
<glyph name="uniA756" format="2">
  <advance width="487"/>
  <unicode hex="A756"/>
  <anchor x="153" y="-110" name="bottom"/>
  <anchor x="330" y="714" name="top"/>
  <anchor x="564" y="714" name="topright"/>
  <outline>
    <contour>
      <point x="165" y="-131" type="line"/>
      <point x="363" y="-83" type="line"/>
      <point x="352" y="-32" type="line"/>
      <point x="153" y="-80" type="line"/>
    </contour>
    <component base="Q"/>
  </outline>
</glyph>
<glyph name="uniA75E" format="2">
  <advance width="397"/>
  <unicode hex="A75E"/>
  <anchor x="135" y="0" name="bottom"/>
  <anchor x="275" y="714" name="top"/>
  <anchor x="474" y="714" name="topright"/>
  <outline>
    <contour>
      <point x="-21" y="0" type="line"/>
      <point x="30" y="0" type="line"/>
      <point x="326" y="714" type="line"/>
      <point x="276" y="714" type="line"/>
    </contour>
    <component base="V"/>
  </outline>
</glyph>
<glyph name="uniA765" format="2">
  <advance width="411"/>
  <unicode hex="A765"/>
  <anchor x="101" y="-233" name="bottom"/>
  <anchor x="312" y="760" name="top"/>
  <outline>
    <contour>
      <point x="75" y="618" type="line" smooth="yes"/>
      <point x="316" y="618" type="line" smooth="yes"/>
      <point x="330" y="678" type="line" smooth="yes"/>
      <point x="88" y="678" type="line" smooth="yes"/>
    </contour>
    <component base="thorn"/>
  </outline>
</glyph>
<glyph name="uniA768" format="2">
  <advance width="432"/>
  <unicode hex="A768"/>
  <outline>
    <contour>
      <point x="-100" y="-240" type="line"/>
      <point x="128" y="-240" type="line"/>
      <point x="138" y="-194" type="line"/>
      <point x="68" y="-179" type="line"/>
      <point x="104" y="-9" type="line"/>
      <point x="516" y="714" type="line"/>
      <point x="430" y="714" type="line"/>
      <point x="206" y="301" type="line" smooth="yes"/>
      <point x="177" y="249"/>
      <point x="154" y="199"/>
      <point x="141" y="164" type="curve"/>
      <point x="138" y="164" type="line"/>
      <point x="152" y="225"/>
      <point x="164" y="279"/>
      <point x="174" y="325" type="curve" smooth="yes"/>
      <point x="243" y="653" type="line"/>
      <point x="319" y="669" type="line"/>
      <point x="329" y="714" type="line"/>
      <point x="101" y="714" type="line"/>
      <point x="92" y="669" type="line"/>
      <point x="162" y="653" type="line"/>
      <point x="-12" y="-179" type="line"/>
      <point x="-90" y="-194" type="line"/>
    </contour>
  </outline>
</glyph>
<glyph name="uniA772" format="2">
  <advance width="335"/>
  <unicode hex="A772"/>
  <anchor x="37" y="0" name="bottom"/>
  <anchor x="94" y="268" name="center"/>
  <anchor x="199" y="760" name="top"/>
  <anchor x="273" y="760" name="topright"/>
  <outline>
    <contour>
      <point x="28" y="-157" type="line"/>
      <point x="90" y="-157" type="line"/>
      <point x="315" y="228" type="line"/>
      <point x="253" y="228" type="line"/>
    </contour>
    <contour>
      <point x="61" y="0" type="line"/>
      <point x="276" y="0" type="line"/>
      <point x="290" y="68" type="line"/>
      <point x="75" y="68" type="line"/>
    </contour>
    <component base="l"/>
  </outline>
</glyph>
<glyph name="uniA773" format="2">
  <advance width="757"/>
  <unicode hex="A773"/>
  <anchor x="245" y="0" name="bottom"/>
  <anchor x="359" y="536" name="top"/>
  <anchor x="624" y="536" name="topright"/>
  <outline>
    <contour>
      <point x="450" y="-157" type="line"/>
      <point x="512" y="-157" type="line"/>
      <point x="737" y="228" type="line"/>
      <point x="675" y="228" type="line"/>
    </contour>
    <contour>
      <point x="484" y="0" type="line"/>
      <point x="699" y="0" type="line"/>
      <point x="713" y="68" type="line"/>
      <point x="498" y="68" type="line"/>
    </contour>
    <component base="m"/>
  </outline>
</glyph>
<glyph name="uniA792" format="2">
  <advance width="380"/>
  <unicode hex="A792"/>
  <anchor x="166" y="0" name="bottom"/>
  <anchor x="328" y="714" name="top"/>
  <anchor x="457" y="714" name="topright"/>
  <outline>
    <contour>
      <point x="17" y="334" type="line"/>
      <point x="304" y="334" type="line"/>
      <point x="317" y="397" type="line"/>
      <point x="30" y="397" type="line"/>
    </contour>
    <component base="C"/>
  </outline>
</glyph>
<glyph name="uniA799" format="2">
  <advance width="227"/>
  <unicode hex="A799"/>
  <anchor x="-71" y="-240" name="bottom"/>
  <anchor x="270" y="765" name="top"/>
  <anchor x="344" y="765" name="topright"/>
  <outline>
    <contour>
      <point x="5" y="256" type="line"/>
      <point x="214" y="256" type="line"/>
      <point x="229" y="324" type="line"/>
      <point x="19" y="324" type="line"/>
    </contour>
    <component base="f"/>
  </outline>
</glyph>
<glyph name="uniA7A1" format="2">
  <advance width="423"/>
  <unicode hex="A7A1"/>
  <anchor x="100" y="-240" name="bottom"/>
  <anchor x="265" y="536" name="top"/>
  <anchor x="433" y="536" name="topright"/>
  <outline>
    <contour>
      <point x="-12" y="205" type="line"/>
      <point x="428" y="302" type="line"/>
      <point x="440" y="360" type="line"/>
      <point x="0" y="263" type="line"/>
    </contour>
    <component base="g"/>
  </outline>
</glyph>
<glyph name="uniA7AE" format="2">
  <advance width="241"/>
  <unicode hex="A7AE"/>
  <outline>
    <contour>
      <point x="-51" y="0" type="line"/>
      <point x="162" y="0" type="line"/>
      <point x="173" y="45" type="line"/>
      <point x="108" y="61" type="line"/>
      <point x="196" y="475" type="line"/>
      <point x="267" y="491" type="line"/>
      <point x="277" y="536" type="line"/>
      <point x="63" y="536" type="line"/>
      <point x="55" y="491" type="line"/>
      <point x="119" y="475" type="line"/>
      <point x="31" y="61" type="line"/>
      <point x="-41" y="45" type="line"/>
    </contour>
  </outline>
</glyph>
<glyph name="uniA7C7" format="2">
  <advance width="457"/>
  <unicode hex="A7C7"/>
  <anchor x="174" y="0" name="bottom"/>
  <anchor x="255" y="357" name="center"/>
  <anchor x="305" y="714" name="top"/>
  <anchor x="513" y="714" name="topright"/>
  <outline>
    <contour>
      <point x="110" y="333" type="line"/>
      <point x="385" y="333" type="line"/>
      <point x="399" y="402" type="line"/>
      <point x="124" y="402" type="line"/>
    </contour>
    <component base="D"/>
  </outline>
</glyph>
<glyph name="uniA7F7" format="2">
  <advance width="697"/>
  <unicode hex="A7F7"/>
  <outline>
    <contour>
      <point x="31" y="258" type="line"/>
      <point x="78" y="258" type="line"/>
      <point x="110" y="335" type="line"/>
      <point x="606" y="335" type="line"/>
      <point x="606" y="259" type="line"/>
      <point x="653" y="258" type="line"/>
      <point x="703" y="492" type="line"/>
      <point x="656" y="492" type="line"/>
      <point x="624" y="413" type="line"/>
      <point x="127" y="413" type="line"/>
      <point x="127" y="491" type="line"/>
      <point x="80" y="492" type="line"/>
    </contour>
  </outline>
</glyph>
<glyph name="uniA7FB" format="2">
  <advance width="337"/>
  <unicode hex="A7FB"/>
  <outline>
    <contour>
      <point x="128" y="0" type="line"/>
      <point x="208" y="0" type="line"/>
      <point x="362" y="714" type="line"/>
      <point x="107" y="714" type="line"/>
      <point x="92" y="642" type="line"/>
      <point x="265" y="642" type="line"/>
      <point x="210" y="380" type="line"/>
      <point x="47" y="380" type="line"/>
      <point x="32" y="308" type="line"/>
      <point x="194" y="308" type="line"/>
    </contour>
  </outline>
</glyph>
<glyph name="uniAB42" format="2">
  <advance width="631"/>
  <unicode hex="AB42"/>
  <anchor x="377" y="536" name="bottom"/>
  <anchor x="261" y="-10" name="top"/>
  <outline>
    <contour>
      <point x="296" y="245" type="line"/>
      <point x="549" y="245" type="line"/>
      <point x="564" y="303" type="line"/>
      <point x="311" y="303" type="line"/>
    </contour>
    <component base="oe" xScale="-1" yScale="-1" xOffset="633" yOffset="536"/>
  </outline>
</glyph>
<glyph name="uniAB44" format="2">
  <advance width="682"/>
  <unicode hex="AB44"/>
  <anchor x="425" y="0" name="bottom"/>
  <anchor x="482" y="268" name="center"/>
  <anchor x="539" y="536" name="top"/>
  <anchor x="719" y="536" name="topright"/>
  <outline>
    <contour>
      <point x="335" y="-62" type="line"/>
      <point x="668" y="561" type="line"/>
      <point x="631" y="583" type="line"/>
      <point x="299" y="-41" type="line"/>
    </contour>
    <component base="uniAB43"/>
  </outline>
</glyph>
<glyph name="uniAB60" format="2">
  <advance width="551"/>
  <unicode hex="AB60"/>
  <outline>
    <contour>
      <point x="329" y="-10" type="curve" smooth="yes"/>
      <point x="432" y="-10"/>
      <point x="504" y="62"/>
      <point x="504" y="177" type="curve" smooth="yes"/>
      <point x="504" y="259"/>
      <point x="462" y="309"/>
      <point x="375" y="309" type="curve" smooth="yes"/>
      <point x="355" y="309"/>
      <point x="336" y="307"/>
      <point x="324" y="304" type="curve"/>
      <point x="372" y="536" type="line"/>
      <point x="295" y="536" type="line"/>
      <point x="219" y="182" type="line" smooth="yes"/>
      <point x="213" y="155"/>
      <point x="210" y="128"/>
      <point x="210" y="106" type="curve" smooth="yes"/>
      <point x="210" y="26"/>
      <point x="255" y="-10"/>
    </contour>
    <contour>
      <point x="-1" y="0" type="line"/>
      <point x="76" y="0" type="line"/>
      <point x="190" y="536" type="line"/>
      <point x="114" y="536" type="line"/>
    </contour>
    <contour>
      <point x="337" y="52" type="curve" smooth="yes"/>
      <point x="299" y="52"/>
      <point x="286" y="79"/>
      <point x="286" y="112" type="curve" smooth="yes"/>
      <point x="286" y="132"/>
      <point x="292" y="164"/>
      <point x="310" y="242" type="curve"/>
      <point x="327" y="245"/>
      <point x="346" y="247"/>
      <point x="361" y="247" type="curve" smooth="yes"/>
      <point x="403" y="247"/>
      <point x="425" y="222"/>
      <point x="425" y="171" type="curve" smooth="yes"/>
      <point x="425" y="107"/>
      <point x="392" y="52"/>
    </contour>
  </outline>
</glyph>
<glyph name="uniFE20" format="2">
  <unicode hex="FE20"/>
  <outline>
    <contour>
      <point x="-176" y="587" type="curve"/>
      <point x="-119" y="587" type="line"/>
      <point x="-85" y="665"/>
      <point x="-11" y="708"/>
      <point x="99" y="708" type="curve"/>
      <point x="99" y="774" type="line"/>
      <point x="-39" y="774"/>
      <point x="-131" y="711"/>
    </contour>
  </outline>
</glyph>
<glyph name="uniFE2E" format="2">
  <unicode hex="FE2E"/>
  <outline>
    <contour>
      <point x="-6" y="571" type="curve" smooth="yes"/>
      <point x="21" y="571"/>
      <point x="37" y="584"/>
      <point x="41" y="615" type="curve"/>
      <point x="207" y="615" type="line"/>
      <point x="207" y="674" type="line"/>
      <point x="5" y="674" type="line" smooth="yes"/>
      <point x="-34" y="674"/>
      <point x="-52" y="657"/>
      <point x="-52" y="621" type="curve" smooth="yes"/>
      <point x="-52" y="589"/>
      <point x="-36" y="571"/>
    </contour>
  </outline>
</glyph>
<glyph name="uniFE2F" format="2">
  <unicode hex="FE2F"/>
  <outline>
    <contour>
      <point x="-44" y="616" type="line"/>
      <point x="158" y="616" type="line" smooth="yes"/>
      <point x="203" y="616"/>
      <point x="215" y="636"/>
      <point x="215" y="668" type="curve" smooth="yes"/>
      <point x="215" y="703"/>
      <point x="201" y="719"/>
      <point x="170" y="719" type="curve" smooth="yes"/>
      <point x="143" y="719"/>
      <point x="127" y="704"/>
      <point x="123" y="674" type="curve"/>
      <point x="-44" y="674" type="line"/>
    </contour>
  </outline>
</glyph>
<glyph name="one.osf" format="2">
  <advance width="303"/>
  <outline>
    <contour>
      <point x="80" y="0" type="line"/>
      <point x="161" y="0" type="line"/>
      <point x="278" y="550" type="line"/>
      <point x="206" y="550" type="line"/>
      <point x="24" y="392" type="line"/>
      <point x="65" y="344" type="line"/>
      <point x="143" y="412" type="line" smooth="yes"/>
      <point x="157" y="424"/>
      <point x="168" y="437"/>
      <point x="180" y="448" type="curve"/>
      <point x="167" y="403"/>
      <point x="157" y="362"/>
      <point x="148" y="322" type="curve" smooth="yes"/>
    </contour>
  </outline>
</glyph>
<glyph name="tbar.sc" format="2">
  <advance width="281"/>
  <anchor x="80" y="0" name="bottom"/>
  <anchor x="202" y="571" name="top"/>
  <anchor x="159" y="286" name="center"/>
  <anchor x="320" y="571" name="topright"/>
  <outline>
    <contour>
      <point x="28" y="260" type="line"/>
      <point x="249" y="260" type="line"/>
      <point x="261" y="318" type="line"/>
      <point x="41" y="318" type="line"/>
    </contour>
    <component base="t.sc" xOffset="-2"/>
  </outline>
</glyph>
